<svg xmlns="http://www.w3.org/2000/svg" viewBox="0 0 780 300">
  <style type="text/css">
		svg {
			color: #000000;
		}

    polygon, path, rect {
      fill: currentColor;
    }
	</style>
  <polygon class="cls-1" points="780 300 702 300 702 270 750 270 750 30 702 30 702 0 780 0 780 300"/>
  <polygon class="cls-1" points="78 30 30 30 30 270 78 270 78 300 0 300 0 0 78 0 78 30"/>
  <path class="cls-1" d="M275.16,126A53.82,53.82,0,0,0,258,114.12,52.75,52.75,0,0,0,199,126a57.12,57.12,0,0,0-11.5,17.82,57.86,57.86,0,0,0-4.25,22.27,57.1,57.1,0,0,0,4.25,22.17A56.16,56.16,0,0,0,199,205.85a53.27,53.27,0,0,0,17,11.74,53.8,53.8,0,0,0,42,0,54.52,54.52,0,0,0,17.13-11.73,55.42,55.42,0,0,0,11.62-17.63A57.15,57.15,0,0,0,291,166.05a57.93,57.93,0,0,0-4.25-22.27A56.35,56.35,0,0,0,275.16,126Zm-29,65.77a21.62,21.62,0,0,1-9,1.92,22.29,22.29,0,0,1-9.13-1.93,21.37,21.37,0,0,1-7.44-5.49,27.78,27.78,0,0,1-5.05-8.68,32.4,32.4,0,0,1-1.88-11.3,34.11,34.11,0,0,1,1.89-11.52,28.64,28.64,0,0,1,5.06-9,22,22,0,0,1,7.46-5.69,21.37,21.37,0,0,1,9.1-2,20.72,20.72,0,0,1,9,2,23.34,23.34,0,0,1,7.49,5.71,27.54,27.54,0,0,1,5.14,9,34.11,34.11,0,0,1,1.89,11.52,32.4,32.4,0,0,1-1.88,11.3,26.73,26.73,0,0,1-5.13,8.66A22.71,22.71,0,0,1,246.14,191.73Z"/>
  <path class="cls-1" d="M404,173.77c0,6.73-.15,13.47-2.43,19.26a44.26,44.26,0,0,1-25.16,25.33A52.19,52.19,0,0,1,356.7,222a53.82,53.82,0,0,1-20-3.53,41.9,41.9,0,0,1-24.48-25.08A56.28,56.28,0,0,1,309,174V110h30v65a30.11,30.11,0,0,0,.56,5.12,16.53,16.53,0,0,0,2.3,5.78,14.18,14.18,0,0,0,5,4.71c2.18,1.28,5.31,1.92,9.29,1.92,5.31,0,9.52-1.61,12.85-4.91A16.85,16.85,0,0,0,374,175V110h30Z"/>
  <rect class="cls-1" x="547" y="110" width="30" height="112"/>
  <path class="cls-1" d="M670.23,180.56l-.54,1.13A21.77,21.77,0,0,1,662,190.2a22.07,22.07,0,0,1-21.42,1.46,24.19,24.19,0,0,1-7.76-5.92,29.72,29.72,0,0,1-5.34-8.91,29.31,29.31,0,0,1-2-10.67,30.68,30.68,0,0,1,2-11,29.52,29.52,0,0,1,5.33-9,25.58,25.58,0,0,1,7.79-6,21.11,21.11,0,0,1,21.08,1.36,24.29,24.29,0,0,1,7.87,8.4l.57,1.05h32l-.66-2.51C698.24,136.32,692,126.74,683,120s-20.18-10.2-33.1-10.2a54.91,54.91,0,0,0-22.2,4.47,54.1,54.1,0,0,0-17.44,12,55.76,55.76,0,0,0-11.41,17.83A58,58,0,0,0,594.68,166a57.21,57.21,0,0,0,4.15,21.76,56,56,0,0,0,11.41,17.73,52.75,52.75,0,0,0,17.46,12,56,56,0,0,0,22.19,4.36c12.92,0,24.08-3.43,33.19-10.19s15.37-16.37,18.54-28.5l.66-2.51Z"/>
  <polygon class="cls-1" points="168.39 78 139.91 135.04 111.61 78 77.67 78 125 166.23 125 222 155 222 155 166.23 202.34 78 168.39 78"/>
  <path class="cls-1" d="M517.07,90.76A41.66,41.66,0,0,0,502,81.32,57.5,57.5,0,0,0,481.94,78H422V222h30V171h30.53a52.6,52.6,0,0,0,19.29-3.43,43.35,43.35,0,0,0,15-9.63,42.55,42.55,0,0,0,9.53-14.76,50.67,50.67,0,0,0,3.33-18.49,54.67,54.67,0,0,0-3.22-19.16A41,41,0,0,0,517.07,90.76ZM452,107h29.47c5.52,0,9.86,1.42,12.9,4.22s4.51,7.4,4.51,13.78-1.52,11-4.51,13.78S487,143,481.47,143H452Z"/>
</svg>
